<svg id="图层_1" data-name="图层 1" xmlns="http://www.w3.org/2000/svg" viewBox="0 0 103.1 42.35"><defs><style>.cls-1,.cls-2{fill:#fff;}.cls-1{fill-rule:evenodd;}</style></defs><title>logo</title><path class="cls-1" d="M137.14,161.68c.23,0,.37-.19.42-.53a1.36,1.36,0,0,1,.05-.74c0-.22-.07-.33-.32-.33a4.33,4.33,0,0,1-1.54-.06c-.34-.06-.49,0-.47.29a6.28,6.28,0,0,1,.06,1.21,2.94,2.94,0,0,1-1.19,1.68c-.16.12-.19.22-.12.3s.29.2.51,0a4.53,4.53,0,0,0,1-1.51c0-.14.18-.23.46-.29A10,10,0,0,1,137.14,161.68Zm-1.51-1.1c0-.08,0-.14.17-.18l1.13-.06c.17,0,.26.09.23.27s0,.11-.09.09-.4,0-.62,0l-.62,0A.18.18,0,0,1,135.63,160.59Zm0,.65a.13.13,0,0,1,.11-.18,9.23,9.23,0,0,1,1.3-.06.08.08,0,0,1,.09.09.26.26,0,0,1-.29.26H135.8C135.69,161.38,135.64,161.33,135.67,161.24Z" transform="translate(-99.92 -121.62)"/><path class="cls-1" d="M137.29,162.13a2.18,2.18,0,0,1-.68.09.93.93,0,0,1-.54-.06c-.19,0-.3,0-.32.26s0,.64,0,1,.2.33.42.21a3.38,3.38,0,0,1,1.12-.09h0a.43.43,0,0,0,.41-.27.6.6,0,0,1,0-.18,4.11,4.11,0,0,0,.12-.52C137.86,162.27,137.66,162.13,137.29,162.13Zm.11.85c0,.12-.11.17-.21.15l-.48.06a1.85,1.85,0,0,1-.38,0c-.16,0-.22,0-.2-.15v-.2a.33.33,0,0,1,.32-.33h.65a.27.27,0,0,1,.29.18Z" transform="translate(-99.92 -121.62)"/><path class="cls-1" d="M136.67,158.64c-.08,0-.11-.07-.09-.21s-.13-.22-.21-.14q-.1.55-2,1.29c-.12.06-.15.14-.09.23a.35.35,0,0,0,.47.12,6.05,6.05,0,0,0,1.45-.94c.08-.1.24-.11.47,0a3.55,3.55,0,0,1,1,.56c.12.1.2.1.24,0s0-.16-.12-.3A4.7,4.7,0,0,0,136.67,158.64Z" transform="translate(-99.92 -121.62)"/><path class="cls-1" d="M136.91,159.7c.21,0,.36,0,.42-.12s-.25-.22-.54-.24a1.4,1.4,0,0,1-.62,0,.49.49,0,0,0-.56.26c0,.09.1.11.35.06A3.37,3.37,0,0,1,136.91,159.7Z" transform="translate(-99.92 -121.62)"/><path class="cls-1" d="M140.72,159c.06-.38,0-.59-.24-.65s-.27.15-.27.5,0,.66,0,1,0,.6,0,.86c0,.1,0,.14-.09.12a3.94,3.94,0,0,1-.88.12c-.12,0-.17,0-.15-.12a4.26,4.26,0,0,0,.09-.59c0-.28-.13-.43-.35-.45s-.24.11-.18.35a1.77,1.77,0,0,1-.07,1.07c-.12.23-.12.4,0,.5s.25.09.33-.09a1.42,1.42,0,0,1,1.24-.41c.06,0,.09,0,.09.11.09.79,0,1.3-.35,1.54a2.34,2.34,0,0,1-1.07.56c-.15.08-.16.19,0,.32q.62.41,1.6-.73a2.55,2.55,0,0,0,.24-1.74,5.31,5.31,0,0,1,0-1A11,11,0,0,1,140.72,159Z" transform="translate(-99.92 -121.62)"/><path class="cls-2" d="M128.16,160.47H129c.4,0,.54.16.45.55a3.93,3.93,0,0,1-.78,1.16,10.34,10.34,0,0,0,1,.67c.28.23.37.4.3.53a.36.36,0,0,1-.5-.06l-1-.79a5.6,5.6,0,0,1-1.22.82c-.3.19-.49.15-.56-.09s0-.26.24-.36a3.72,3.72,0,0,0,1.13-.64c-.43-.29-.65-.5-.65-.65a1.8,1.8,0,0,1,.27-.77l-.62.06c-.28.06-.41,0-.39-.12a.52.52,0,0,1,.51-.37,1.84,1.84,0,0,0,.63,0,8.19,8.19,0,0,0,.44-1.47c0-.14.08-.28.12-.43s.14-.33.33-.27a.39.39,0,0,1,.24.49c-.08.18-.22.53-.42,1S128.2,160.39,128.16,160.47Zm.68.34H128a1.05,1.05,0,0,0-.24.64c0,.16.2.32.54.49a3.55,3.55,0,0,0,.66-.89c0-.09,0-.15,0-.19A.16.16,0,0,0,128.84,160.81Zm2.74-2.42a.35.35,0,0,1,.09.49c-.12.2-.37.59-.74,1.14a2.46,2.46,0,0,0-.16.21c-.07.1-.09.17-.06.21s.09.05.21,0a2.43,2.43,0,0,0,.65,0l.66-.06c.2,0,.25-.14.15-.31a2,2,0,0,1-.24-.34,1.93,1.93,0,0,1-.21-.34c-.07-.12-.07-.22,0-.27s.15,0,.27.12c.29.33.57.66.8,1s.09.51-.27.55a2.85,2.85,0,0,1-.41,0c-.66,0-1.22,0-1.7.09s-.58-.16-.45-.55l.41-.64c.3-.43.52-.76.66-1S131.5,158.35,131.58,158.39Zm-.74,3.12h1.73c.37,0,.55.13.53.33l0,.49c0,.35,0,.51,0,.49,0,.47-.26.67-.66.61a7.62,7.62,0,0,0-.86,0,3.6,3.6,0,0,0-.51,0c-.44.12-.65,0-.65-.37a2.33,2.33,0,0,1,0-.46v-.86C130.32,161.62,130.48,161.51,130.84,161.51Zm.6.4q-.63,0-.62.34a.41.41,0,0,1,0,.18,1.31,1.31,0,0,0,0,.33c0,.23.16.33.48.31a2.77,2.77,0,0,0,.59,0l.33,0a.34.34,0,0,0,.36-.37l0-.31c0-.18,0-.28,0-.3s-.18-.21-.39-.21l-.47,0Z" transform="translate(-99.92 -121.62)"/><path class="cls-2" d="M145,158.91l0,1s0,.06.06.06a8.18,8.18,0,0,0,.86,0c.86,0,1.51,0,2,0,.06,0,.09,0,.09.06a.12.12,0,0,1,0,.12,1,1,0,0,1-1,.28,9.94,9.94,0,0,0-1.91-.15c-.06,0-.08,0-.06.09a6.64,6.64,0,0,1-.24,2.48,1.94,1.94,0,0,1-1.88,1c-.28,0-.45-.07-.51-.21s0-.28.3-.31a1.52,1.52,0,0,0,1.7-.8,2.55,2.55,0,0,0,.18-.7c0-.33,0-.82,0-1.47,0-.06,0-.09-.05-.09l-1.46.09a6.44,6.44,0,0,0-.8.12c-.44.15-.68.17-.72.06-.06-.29.16-.48.68-.58a4.43,4.43,0,0,0,.86.06c.38,0,.85,0,1.4-.06,0,0,.06,0,.06-.06l0-.43a1.08,1.08,0,0,1,0-.43c0-.21-.12-.31-.27-.31a11.17,11.17,0,0,0-1.17.09.08.08,0,0,1-.06,0c-.22.08-.33.07-.33,0a.58.58,0,0,1,.56-.43,2.6,2.6,0,0,0,1,0l2.14-.06c.06,0,.09,0,.09,0a.1.1,0,0,1,0,.12c-.13.22-.29.29-.44.18a4.75,4.75,0,0,0-.6,0h-.26C145.09,158.64,145,158.73,145,158.91Z" transform="translate(-99.92 -121.62)"/><path class="cls-2" d="M150.53,159.64v2.6a1,1,0,0,0,0,.43c0,.24,0,.39,0,.43,0,.24-.12.38-.27.43s-.35-.15-.35-.47c0-.05,0-.13,0-.25a.87.87,0,0,0,.07-.28v-3.14a4.77,4.77,0,0,1-.62.43.1.1,0,0,1-.08,0c-.18.12-.32.14-.42.08s-.31-.24-.24-.36.07-.07.21-.07a.32.32,0,0,0,.17,0,1.38,1.38,0,0,0,.7-.28l.11-.11A.68.68,0,0,0,150,159v-.17a.7.7,0,0,1,0-.25s0,0,.07,0a1,1,0,0,1,.38.15.38.38,0,0,1,.14.25.35.35,0,0,1-.07.25A.75.75,0,0,0,150.53,159.64Z" transform="translate(-99.92 -121.62)"/><path class="cls-2" d="M151.81,161.53c0-1.88.64-2.87,1.87-3a3.53,3.53,0,0,1,1.29.29.94.94,0,0,0,.49,0,.08.08,0,0,0,0,.07c0,.46-.15.65-.45.57,0,0-.11,0-.21-.14a1.62,1.62,0,0,0-.1-.14,1.91,1.91,0,0,0-1-.29c-.83.05-1.33.74-1.49,2.08,0,0,0,.06.07,0a2.38,2.38,0,0,1,1.53-.68,1.66,1.66,0,0,1,1.74,1.57,1.53,1.53,0,0,1-1.74,1.57A1.77,1.77,0,0,1,151.81,161.53Zm3.36.43a1.44,1.44,0,0,0-1.39-1.21c-.95.1-1.48.49-1.59,1.18q.13,1.25,1.59,1.32A1.27,1.27,0,0,0,155.18,162Z" transform="translate(-99.92 -121.62)"/><path class="cls-2" d="M156.46,162.06l2.22-.11v-1.54a1.17,1.17,0,0,0,0-.29.71.71,0,0,1,0-.29s0,0,0-.07c.38.09.56.25.56.46a0,0,0,0,1,0,0,5.34,5.34,0,0,0-.14,1.46V162l.39,0,.42-.08a.15.15,0,0,1,0,.08c-.14.31-.29.47-.45.5a1,1,0,0,1-.39,0v.82a.34.34,0,0,1-.38.29l-.07-.15c0-.33,0-.68.07-1-.37,0-.73,0-1.07,0l-1,.07a2.07,2.07,0,0,1-.51.07c-.1,0-.15,0-.15-.11a1.34,1.34,0,0,1,.39-.75,11.19,11.19,0,0,0,1.46-2.46,2.19,2.19,0,0,0,.06-.61.08.08,0,0,1,.11,0,.79.79,0,0,1,.56.61l0,.07a15.15,15.15,0,0,0-1.08,1.53C157,161.37,156.66,161.8,156.46,162.06Z" transform="translate(-99.92 -121.62)"/><path class="cls-2" d="M164.06,160.81v.54a2,2,0,0,1-2,2.18,1.76,1.76,0,0,1-1.54-.64.38.38,0,0,1,0-.5l0,0a.51.51,0,0,1,.21-.18.08.08,0,0,0,.07,0,.79.79,0,0,0,.14.43,1.26,1.26,0,0,0,1.12.57c1,0,1.54-.74,1.59-2.07a2.46,2.46,0,0,1-1.46.47,1.59,1.59,0,0,1-1.71-1.5,1.55,1.55,0,0,1,1.71-1.54C163.35,158.64,164,159.38,164.06,160.81Zm-.45-.17a1.57,1.57,0,0,0-1.46-1.68,1.27,1.27,0,0,0-1.32,1.15c.07.69.51,1.06,1.32,1.11S163.42,160.95,163.61,160.64Z" transform="translate(-99.92 -121.62)"/><path class="cls-2" d="M167.67,160.38v-.49a.19.19,0,0,1,.18-.21c.12,0,.19.14.24.37v.34c0,.08,0,.11.09.09h.9a.34.34,0,0,1,.27.15c0,.14,0,.21-.12.21a3.33,3.33,0,0,0-.45,0,3.42,3.42,0,0,0-.6,0,.08.08,0,0,0-.09.09c0,.23,0,.42,0,.58v.28c0,.06,0,.09.06.09h1l1.84,0c.12,0,.16.06.12.18a.52.52,0,0,1-.74.39,9.64,9.64,0,0,0-2.21-.24c-.07,0-.11,0-.09.09v1.38c0,.22-.07.35-.21.37s-.23-.12-.21-.37v-1.38c0-.06,0-.09-.09-.09l-1.46.09c-.47,0-.95.1-1.4.18-.2,0-.26-.09-.18-.27a.7.7,0,0,1,.45-.31l.11,0h.66c.12,0,.17,0,.17-.12a.24.24,0,0,1,0-.12,3.37,3.37,0,0,1,0-.79c-.06-.3.06-.43.36-.37a6.29,6.29,0,0,0,1.34,0S167.65,160.44,167.67,160.38Zm-1.19-1a.15.15,0,0,0-.12.06,2,2,0,0,1-.68.67l-.06.06c-.14.1-.24.15-.3.12-.23-.1-.24-.27-.06-.49a1.7,1.7,0,0,0,1.07-1.35c0-.06.06-.07.14,0s.09.08.09.18,0,.27-.06.4,0,.06.09.06c1.25,0,2.21-.06,2.86-.06.14,0,.17.1.09.24a.41.41,0,0,1-.38.19c-.42,0-1-.06-1.87-.06Zm1.13,2.45s0,0,.06-.09v-.86a.21.21,0,0,0-.09-.09l-.77.06h-.36a.23.23,0,0,0-.17.22,5.46,5.46,0,0,0,0,.7c0,.08,0,.12.09.09h.71A3.45,3.45,0,0,0,167.61,161.82Z" transform="translate(-99.92 -121.62)"/><path class="cls-1" d="M200.25,124.35a1.36,1.36,0,0,1-.83.23h-.35v-1.51h.41a1.75,1.75,0,0,1,.85.14.52.52,0,0,1,.24.51.76.76,0,0,1-.31.63Zm1.51,2.43a2.78,2.78,0,1,0-1.87.72,2.8,2.8,0,0,0,1.8-.66H201l-1.33-1.78h-.59v1.78h-.65v-4.25h1.19a3,3,0,0,1,1,.12.91.91,0,0,1,.61.9,1.24,1.24,0,0,1-.21.74,2,2,0,0,1-.72.55l1.43,1.88Zm-1.87-5.17a3.11,3.11,0,1,0,3.12,3.11A3.11,3.11,0,0,0,199.89,121.62Z" transform="translate(-99.92 -121.62)"/><path class="cls-1" d="M100,131.1c1.58-8,11-4.78,15.6-4.47,6.29.74,12.63,1.29,18.94,1.78a227.37,227.37,0,0,0,26.84,0c6.31-.49,12.65-1,18.94-1.78,4.67-.36,14.12-3.42,15.59,4.47l.1,18.81c-.62,5.56-4.72,6.78-9,6.5-4.27-.7-8.62-1.59-12.92-2-10.19-.9-20.14-1.34-30.35-1.34-7.21,0-14.74.7-21.92,1.34-4.3.38-8.65,1.28-12.91,2-4.53.25-8.62-1.13-9-6.5l.1-18.81Zm1.28,1.06L101.2,149c.38,5.18,4.36,6.46,8.76,5.8,4.15-.62,8.39-1.43,12.57-1.76,7-.57,14.32-1.19,21.33-1.19,9.92,0,19.62.39,29.53,1.19,4.19.34,8.42,1.14,12.58,1.76,4.41.66,8.38-.62,8.76-5.8l-.1-16.81c-1.1-7.51-10.5-4.49-15.18-4-6.12.66-12.29,1.15-18.43,1.59a241.33,241.33,0,0,1-26.12,0c-6.15-.44-12.31-.93-18.44-1.59C111.79,127.67,102.39,124.65,101.29,132.16Z" transform="translate(-99.92 -121.62)"/><path class="cls-1" d="M180.46,137.25a8.74,8.74,0,0,0-2.53-.39,8.54,8.54,0,0,1-1.54-.11c-.2,0-.46.05-.74,0,.13-.36.92-.38,1.4-.51.12,0,.23-.14.38-.1s.3.3.63.37a.91.91,0,0,0,.81-.27l0-.19c.08-.11.22-.17.25-.33a1.47,1.47,0,0,0-.09-.73c-.13-.38-1.19-.57-1.45-.92s-.7.15-1,.23c0,0,0,0,0,.09l-.08,0c.16.12.29.24.43.37,0,.32-.91,1-1.24,1.07h0a1.46,1.46,0,0,1,.23-1.18c.07-.07.17,0,.2-.14a2.16,2.16,0,0,0-.68-1.12l-.23-.07c-.08,0-.1-.12-.16-.17l-.17-.06c-.3-.16-.47-.54-.79-.7a.92.92,0,0,0-.9.15c-.2.23-.68.38-.77.68s.17.36.21.51a1.88,1.88,0,0,1-.1.72c0,.29.1.56,0,.78a8.25,8.25,0,0,1-1,.3c-.18,0-.33-.11-.47-.15s-.35,0-.44-.12c-.28-.21.05-.75-.11-.82s-.14,0-.18,0l-.2,0c-.2.1-.21.19-.3.4s-.65.8-.42,1.33a1.31,1.31,0,0,0,1.1.83,2.35,2.35,0,0,1,1,.35,14.7,14.7,0,0,1-1.69.18l-1.07.12c-.42-.29-.09-.81.12-1l0-.11-.09-.1a1.39,1.39,0,0,0-1.07.44c-.28.37-.25.63-.63,1,0,.06-.77,1-.94,1.26a2,2,0,0,0,.79,2,1.17,1.17,0,0,0,.4.49,1.73,1.73,0,0,0,.6.17c.43.07.44-.19.6-.35.92-.58-.07-2.73.63-2.56,0-.1,0-.15.13-.19a17.49,17.49,0,0,1,3.56-.61,1.57,1.57,0,0,0,.59.78c.45,0,.44-.29.71-.44a4.18,4.18,0,0,1,.57-.27l.38,0,.3-.18-.07-.12c.49-.41,1.9-.1,2.67-.23h0c.15.12.39.07.61.14s.14.14.25.18c-.09.31-.76.66-1.05.86-.08.05-.1.17-.19.21a1,1,0,0,1-.53.16c-.37-.07-.64-.35-1-.43A2.6,2.6,0,0,0,175,139a10,10,0,0,0-1.4.33.67.67,0,0,0-.21,0c-.08.08-.13.1-.17.22l-.11,0c-.28.16-.28.41-.25.75s.46,0,1,0a2.64,2.64,0,0,0,.78,0h.08c0,.31-.17.53-.2.83-.34.19.38.63-1.17.51-.25,0-.34.19-.67.14h0c0-.13,0-.29,0-.45l-.15-.28c-.16-.63-.15-.28-.29-.87,0-.12,0-.24,0-.36-.81-.7-.44-.27-1.19-.5a1.11,1.11,0,0,0,0,1.1c0,.84.57,2.71,1.31,2.94.37-.33.71,0,.46-.09a3.11,3.11,0,0,0,0,1c-.18.08-1.52.2-1.66.41s-.19.17-.22.36.66,1,1,1.1a2,2,0,0,0,.62,0,1.23,1.23,0,0,1-.08.6,4.08,4.08,0,0,1-.72.12c-.75,0-2.19.15-3,.13-.61,0,0,1.19.35,1.41s.45.42.75.49a20.15,20.15,0,0,0,3-.39,5.38,5.38,0,0,0,1.38-.21c.17.05.44,0,.7,0a9,9,0,0,1,2.55.36,2.18,2.18,0,0,0,1.22-.07,3.74,3.74,0,0,0,1.06-.23c0-.09-.16-.46-.21-.54a.4.4,0,0,0,0-.34c-.24-.65-.68-.7-1.32-1-.1,0-.12-.15-.22-.19s-.41.24-.59.34c-.38.08-.79,0-1.19,0a7.51,7.51,0,0,1-1.06,0,2,2,0,0,1,0-.6,3.78,3.78,0,0,0,0-.53c.19,0,.58-.08.79-.13a2,2,0,0,0,1.16-.47c.07-.09.11-.22.18-.3a2.22,2.22,0,0,0-.75-1c-.15-.1-.4,0-.65.05a4.08,4.08,0,0,1-.77,0c-.24.15-.09-.15-.16-.21l.07-.34c.78-.31,1.26.26,1.61-.8.1-.27-.25-.4-.1-.64s.23-.12.36-.2c.46-1,1.26-.71.77-1.88h0c.16-.07.14,0,.24,0a2.53,2.53,0,0,1,2.32.09,1.28,1.28,0,0,0,.53.16c.23,0,.7-.25.89-.34s.11-.17.19-.3c.34-.55-.14-.87-.46-1.3a2.5,2.5,0,0,0-.73-.79Zm-18.87,5.91a10.46,10.46,0,0,1-3.61-3c.25,0,.46-.13.74-.18a8.2,8.2,0,0,1,2.07.16c.16-.15.8,0,.78-.25a.92.92,0,0,0-.15-.61l-.15-.21c-.15-.21-.49-.29-.6-.47s-.07-.16-.13-.23a.21.21,0,0,0-.12,0,7,7,0,0,0-1.68.15l-2.37.29-.17.12c-.09,0-.2,0-.27,0s-.25.09-.43.11l0,0a1.17,1.17,0,0,1,.55-.53c.34-.15,1.62-.31,1.95-.45.08,0,.43,0,.51-.06s-.09-.43,0-.6-.72-.31-.76-.48a.58.58,0,0,0-.3-.06,7.75,7.75,0,0,1-.82.1c-.13,0,0-.25,0-.28s0-.21.14-.25c.37-.13,1.09-.08,1.4-.18.08,0,.17,0,.25,0s.2,0,.28,0a1.1,1.1,0,0,0,.33-.33c0-.07.14-.07.17-.15.23-.58-.64-1.2-1.08-1.36-.15-.06-.35,0-.45,0-.57,0-.72.1-1.26.1,0-.13,0-.36,0-.47s-.33-.26-.52-.37l-.64-.55c-.18-.21-.3-.57-.56-.72a1,1,0,0,0-.77,0,1.15,1.15,0,0,0-.33.73c0,.09.06.08.06.14l-.05.22.2.3a3.16,3.16,0,0,1-.17,1.33c-.16.21-.64.1-1,.16s-1.17.13-1.35.47a.57.57,0,0,0,.26.4c.06,0,.05,0,.12,0h0s0,.09,0,.13l.35.11c.29.14.43.47.74.6.07,0,.42,0,.43.06s-.1.34-.14.39c-.23.46-1,.09-1.53.16-.23.43-.91.41-.28.85a4.75,4.75,0,0,0,.49.29,6.48,6.48,0,0,0,.82.39c0,.2,0,.43-.13.53-.44.3-1.37.18-1.85.34-.65.18-2-.27-2.29.41,0,.06,0,.26.22.53a6.25,6.25,0,0,0,1.06.91,1.76,1.76,0,0,0,1.12,0s0,.3,0,.31c-.62.67-.6,1-1.65,2.25a14.93,14.93,0,0,1-2.38,2.33l.08.26.08,0,.16-.12c.09,0,.09.06.2,0a5.34,5.34,0,0,0,1.58-.51c1.71-.77,2.54-2.41,4-3.87l.22-.33a7.39,7.39,0,0,1,.56-.58l.21-.27.25-.09a17.08,17.08,0,0,1,2.29-.75c.08,0,.08,0,.1.06s.05,0,.16,0a.92.92,0,0,1,0,.13l-.11,0h0c0,.07.07.08.18.1s0,.06-.06.09.21.29.3.44v0a3.58,3.58,0,0,0-2.12.61,4.41,4.41,0,0,1-.51.72c0,.06,0,.06,0,.1a5.49,5.49,0,0,0,1.69-.24l.19,0a4.56,4.56,0,0,1,.14,2.3,6.19,6.19,0,0,0,.06,2.43c-.1,0-.1.09-.09.2l-.17.06c-.18-.14-.53-.12-.69-.27l.15,0c.09-.08,0-.16,0-.28.17-.36-.13-.71-.52-.79l-.47,0c-.1,0-.08-.07-.25-.05a.55.55,0,0,1,0,.09c-.05,0,0,0-.06-.06s-.18,0-.32,0l0,0a1.27,1.27,0,0,1,.06-.54c.25-.12.63-.13.89-.26s.31-.4.47-.61.3-.41,0-.53c0-.16,0-.22-.1-.34s0,0-.06,0l-.06,0,0-.09c-.25-.24-.66-.14-.92-.32,0,0,0,0-.1.05l.1-.31-.17-.47c0-.12,0-.24,0-.36l-.23-.2c0-.09,0-.19.07-.28l-.07,0c-.07,0-.06,0-.09.05l-.12,0c-.11.12-.26.2-.36.32l-.4.67,0,0c0,.08-.13.11-.17.2a6.25,6.25,0,0,0-.24,1.4c0,.23-.09.46-.14.69s-.08,1,0,1c-.33.85.26,2.24,1,2.36.25,0,.41-.18.59-.22a1.4,1.4,0,0,0,.83-.42h.19c.09.2.51.28.71.4a1.8,1.8,0,0,1,.57.65l.15.34c.07.09.23,0,.38.06.46,0,.8-.58,1.11-.81a2.63,2.63,0,0,0,.68-.59c.6-.86.09-2.66.08-3.94a9.42,9.42,0,0,1,1.17.83,1.86,1.86,0,0,0,.7.36c.2,0,.38-.09.6-.07a9.63,9.63,0,0,1,1,.15c.31.06.63.24,1,.13,0,0,0,0,0-.06h0l0,.06c.1,0,.18,0,.29,0a1.44,1.44,0,0,0,.44-.46c.21,0,.19-.15.43-.15-.13-.51-2.35-1.41-3-1.63Zm-18.84-8.33c-.43-.07-.72.34-1.05.36-1.58-.06-2.94,0-4.53.1a7.9,7.9,0,0,0-1.22,0l-.3,0-1.3.17a4.6,4.6,0,0,0-1.37.24.66.66,0,0,0,0,.08l-.09,0a.87.87,0,0,0-.27.37,1.91,1.91,0,0,0,.56.72,4.16,4.16,0,0,0,.88.59c.28.08.45-.1.62-.14s.27,0,.41,0a4.26,4.26,0,0,0,.8-.22c.2-.08.5,0,.63-.15.31.07.7,0,1.07,0,1-.11,1.43-.17,2.27-.27.19,0,.36,0,.54,0,.63-.05.37.11,1,.13l.14.2a5.2,5.2,0,0,1,.19.61s-.06.07-.05.15-.18.92-.2,1c-.18.55-.35,1.81-.63,2.92-.14.56-.32,1-.42,1.29s-.43.48-.57.71a2.59,2.59,0,0,1-1,.27,21.89,21.89,0,0,1-3.67.14c-.28,0-.66.05-1,.1-.16,0-.34.12-.44.07s-.17-.23-.32-.25c0-.09.06-.06.1-.13-.14-.94-.42-1.87-.55-2.89a12.56,12.56,0,0,1-.27-2.76c0-.12,0-.25,0-.37-.22-.64.24-.46-.56-1a2.17,2.17,0,0,1-.72-.7,2.51,2.51,0,0,0-1.5-.43c0,.41.05.82.08,1.23.22,1.53.5,3.06.69,4.6.09.77.88,4.54,1.88,4.7a3.79,3.79,0,0,0,1.06-.61c.16-.06-.21.36.7.24s2-.32,2.34-.29c.6.06,1.14,0,1.75.14l.2.32c.14.36.1.42.39.66a.48.48,0,0,0,.28.06,6.72,6.72,0,0,0,1.5-.31,6.36,6.36,0,0,0,1-.35c1.69-1.19,2.31-6.13,3-8.79a2.23,2.23,0,0,0-.8-1.76,6.4,6.4,0,0,0-1.2-.77Zm-8.81,4.75a1.26,1.26,0,0,1,.38-1c.13-.06.1,0,.18-.08a5.13,5.13,0,0,0,.86.43c.32.09,2-.51,2.65-.34h0a.61.61,0,0,1,.06-.23.69.69,0,0,0,.28-.13,1,1,0,0,1,.69.43c0,.09.1.18.16.27,1,.84.27,1.07.11,2.25a4,4,0,0,1-.57.68s0,.14,0,.11a1.61,1.61,0,0,1,0,.53.42.42,0,0,1-.14.21,6.25,6.25,0,0,1-1.27.19c-.45,0-2,.26-2.08.2s-.15-.08-.28-.12-.14-.11-.16-.19c-.26-.5-.18-.65-.11-.67-.25-.8-.34-1.3-.64-2.15l-.15-.37Zm1.8.85c0-.22-.15-.49-.08-.63s1.2-.17,1.61-.3l.29,0a3.18,3.18,0,0,1-.12,1,5.19,5.19,0,0,1-.37.94c-.33,0-.9.1-1.23.16,0,0,0-.22,0-.22a1.42,1.42,0,0,1,0-.52,1.32,1.32,0,0,1-.11-.42Zm-10.5-3.35c-.34-.32-.87-.87-1.47-.87-.06.06-.1,0-.17.06s-.23.14-.25.18c-.08.37-6.47.82-7.7,1a8.13,8.13,0,0,1-1.62.28l-.4,0c-1.06.42-1.68.05-2.69,0l-.25.22-.16.13c0,.23,0,.86.36.9.11.37.33.32.55.56l.27.41c.41.21.6.48,1.26.21a13.8,13.8,0,0,0,1.91-.62c.13,0,.26-.14.38-.17a15.32,15.32,0,0,1,2.79-.3l.05.07a17.11,17.11,0,0,1-1.47,2.06,19.52,19.52,0,0,1-5.55,5.83c-.19.22-.59.47-.61.83,1.24.29,2.92-.94,4-1.47a8.26,8.26,0,0,1,1.42-1,5.19,5.19,0,0,1,1,1.6c.08.33-.38.78,0,1.14s1.49,1.08,2,.92a16,16,0,0,0,2.47-2.11,7.4,7.4,0,0,0,1-1.65,12.81,12.81,0,0,0,.68-1.94c.13-.36.56-.71.61-.91.11-.53-.42-.85-.7-1-.86-.59-1.06-1-2.55-.69h0l0,0,.33-.37c.29-.66-.38-1-.61-1.46l0,0c.89,0,2-.19,2.91-.19l.38,0c.25,0,.51.12.72.14s.13,0,.24,0c.39.07.77.27,1.14.07s.59-.24.63-.51a1.84,1.84,0,0,0-.31-.68,3.22,3.22,0,0,0-.47-.52Zm-7.42-1.14a7.72,7.72,0,0,0-1.4.58,3.7,3.7,0,0,1,.8-1c-.09-.25-.28-.37-.42-.55a1.63,1.63,0,0,1-.32-1.88c.07-.17.27-.21.41-.32s.27.24.5.28c.46.09.78.16,1.17.21a4.91,4.91,0,0,1,.63.2l.06.09c.06,0,.08,0,.15,0a1.39,1.39,0,0,1,.8,1.15c-.16.08,0,.52,0,.65s-.84.41-1.08.54-.94,0-1.25.06Zm2.48,6.16c.2,0,.45-.08.59.06s-.24,1.2-.3,1.3-.23.2-.32.32-.25.45-.4.65l-.26.29c0,.08,0,.15-.09.21-.21.27-.91,1.18-1.68,1.27a.77.77,0,0,1-.41,0,2.81,2.81,0,0,1-1.27-1.16c.2-.17.8-.58.8-.85a4.44,4.44,0,0,0,.82-.74,15.31,15.31,0,0,1,1.34-1.66C119.52,141.84,119.87,142.05,120.31,142.1Z" transform="translate(-99.92 -121.62)"/><path class="cls-1" d="M189,147.29s-.2,0-.28,0a2.46,2.46,0,0,0-.71,0v0h0c0,.06,0,.07,0,.13s0,.06.07.07h1c.07-.1.1,0,.1-.23l-.17,0Zm-1-.28s0,.07,0,.1a1,1,0,0,0,.38,0h.78a.23.23,0,0,0,0-.1s0,0,0,0Zm.62-.77a5.73,5.73,0,0,1,0,.58,3.81,3.81,0,0,0,1,0s0,0,.09,0a.43.43,0,0,1,.11.22s0,0,0,0,0,0,0,.06a1.14,1.14,0,0,1-.06.23c0,.09,0,.21,0,.3a.87.87,0,0,0,0,.35c0,.08,0,.17,0,.25a2,2,0,0,1,.08.33c-.06,0-.05,0-.13.05a1.61,1.61,0,0,1-.15-.78v-.3a3.73,3.73,0,0,0,.12-.55c-.06,0-.06-.08-.17-.09s-.09,0-.13,0a1.15,1.15,0,0,0,0,.33s0,.1,0,.15a.31.31,0,0,1-.28.21c-.08.06-.28,0-.38.05s0,.1,0,.16a1.89,1.89,0,0,0,.55,0,.35.35,0,0,0,.17,0,.21.21,0,0,1,0,.13,2.35,2.35,0,0,1-.73,0,1,1,0,0,0,0,.4l.11,0s.11,0,.18,0h.46c0,.05,0,.05.05.13a.21.21,0,0,1-.15.05s-.35,0-.45,0h-1.1a.26.26,0,0,1,0-.13,1.63,1.63,0,0,1,.6-.05s.09,0,.13,0a1,1,0,0,0,0-.36.84.84,0,0,0-.35,0c-.06,0-.27,0-.36,0l0-.07s0,0,0-.07,0,0,.07,0h.68a.55.55,0,0,0,0-.18h0v0l-.08,0a.77.77,0,0,1-.18,0,0,0,0,0,0,0,0s-.07,0-.1,0,0,0-.1,0a.94.94,0,0,1-.15-.25.22.22,0,0,1,0-.12.88.88,0,0,0,0-.28c0-.07-.12-.05-.22-.05s-.08.06-.08.17,0,.22.07.33a1.93,1.93,0,0,1,0,.94c0,.15,0,.25-.2.25a1.51,1.51,0,0,1,.08-.52V148a1.81,1.81,0,0,0,0-.51v-.1c0-.09-.13-.25-.05-.35s.12-.13.18-.2a5,5,0,0,0,.91,0,1.23,1.23,0,0,0,0-.37s0-.16.05-.21a.19.19,0,0,1,.12,0Zm.53,0c-.06,0-.19,0-.25.07s-.09.19-.08.3a1.23,1.23,0,0,1,.15.15s.07,0,.08,0h.68l.06-.07s0,0,0-.06a2.2,2.2,0,0,0-.74,0,.27.27,0,0,0-.09-.06c0-.08.05-.09.09-.15s.2,0,.25,0,.44,0,.5,0,0,0,0,0l0-.08-.6,0Zm-1.57,0c-.05,0-.16,0-.2.05h0a.19.19,0,0,0,0,.13,2.06,2.06,0,0,1,.8.05c0,.31-.65,0-.81.16h0a.33.33,0,0,0,0,.11,1.3,1.3,0,0,0,.46,0h.21a.66.66,0,0,1,.13,0l.12-.08s0-.07.05-.1,0-.13,0-.16-.31-.17-.51-.15-.11,0-.2,0Zm-1.51,2.09s-.16,0-.23,0l-.48,0a.23.23,0,0,0,0,.13s0,.07,0,.08h.16a3.74,3.74,0,0,0,.88,0,.32.32,0,0,0,.07-.21h0v0Zm.08-.43s-.16,0-.23,0a4,4,0,0,0-.56,0v0a.32.32,0,0,0,0,.15,1.36,1.36,0,0,0,.57.05c.15-.11.53.1.59-.12,0,0,0,0,0-.06a.43.43,0,0,0-.33-.1Zm-.2-.18c.19,0,.33,0,.51,0s.13.11.17.2a1.63,1.63,0,0,1,0,.66c-.07,0-.11.11-.18.13h-.3a2.73,2.73,0,0,1-.63,0c-.06,0-.13,0-.16,0a.24.24,0,0,1-.17-.22s0-.14,0-.21a.77.77,0,0,1,.05-.43c.06,0,.1-.1.17-.12s.49,0,.58,0Zm1-1.47h.1v0a.23.23,0,0,1,0,.32c-.2.2-.68.08-1,.15a.66.66,0,0,0,0,.09.29.29,0,0,0,.15,0c.06,0,.21,0,.3,0l.65,0a.46.46,0,0,0,.07.1s0,0,0,0-.19.05-.31.05a5.09,5.09,0,0,0-.81,0s0,.06,0,.1a1.27,1.27,0,0,0,.37,0h.74l.05.05-.07.12h-.71v0l0,0v0s0,0,0,.07l.06,0c.15,0,.46-.05.55,0l.13.07s0,0,0,.07l.07,0v.15s0,.11,0,.18a1,1,0,0,0,0,.53,1.08,1.08,0,0,1,.07.18l-.07.05-.08,0a1,1,0,0,1-.13-.69l0,0v-.08s0,0,.05-.07,0-.09,0-.15l-.05,0c-.11-.1-.3,0-.44,0s-.26-.08-.3-.13,0-.15-.05-.17h-.36s0,0-.05,0-.07.16-.13.22l-.07,0,0,.05a.47.47,0,0,1-.23,0s-.22,0-.3,0,0,0-.07,0,0,.09,0,.13a1.3,1.3,0,0,0,.08.16,1.19,1.19,0,0,1,0,.6s-.06.08-.07.1,0,.08,0,.1h-.12v0c-.06-.09.13-.4.07-.61a1.87,1.87,0,0,1-.12-.42s0-.05,0-.08.18-.17.42-.17c0,0,.23,0,.31,0s0,0,.07-.1a3.86,3.86,0,0,0-.8,0,.19.19,0,0,1,0-.13l0,0c.33,0,.72,0,1.08,0a.2.2,0,0,1,0-.06v0a1,1,0,0,0-.3,0h-.61a.39.39,0,0,1-.23,0,.21.21,0,0,1,0-.07s0,0,0,0a.87.87,0,0,1,.26,0s.09,0,.13,0a5,5,0,0,1,.71,0,.36.36,0,0,0,0-.1l-.1,0a.6.6,0,0,0-.27,0h-.27c-.26,0-.5,0-.51-.21a.29.29,0,0,1,0-.17s0,0,.13,0l0,0c.06.08,0,.12.07.19a2.38,2.38,0,0,0,.93,0,.85.85,0,0,0,0-.28l.1,0s0,0,0,0v0c.11.08,0,.19.08.28s.19,0,.26,0a.47.47,0,0,1,.2,0,2.62,2.62,0,0,0,.43,0s0,0,0-.07,0-.13,0-.18l0,0Zm-2-2.67,1.85,0c.05.08.15.13.18.23a1.57,1.57,0,0,1,0,.48c0,.36,0,.77,0,1.09-.05,0-.08.1-.13.13h0l0,0h-1a1.61,1.61,0,0,1-.44,0c-.36-.11-.18-.91-.22-1.28.08,0,.14-.15.23-.18a4.25,4.25,0,0,1,.75,0l.15,0c.08,0,.11.13.17.18a5.06,5.06,0,0,1,0,.8h0a.18.18,0,0,1-.1,0,2.54,2.54,0,0,1,0-.77.36.36,0,0,0-.25-.07s-.14,0-.22,0h-.4s-.07,0-.08.07v1s0,.05,0,.06.21,0,.35,0h.92a.65.65,0,0,1,.2,0,1.83,1.83,0,0,0,0-.48v-1s-.05-.09-.08-.1h-.3a1.82,1.82,0,0,0-.46,0c-.42,0-.83,0-1.23,0a2.87,2.87,0,0,0,0,.83c0,.05,0,.24,0,.33,0,.3,0,.6,0,.89a.21.21,0,0,1,0,.07c.67,0,1.48,0,2.2,0,0,.05,0,0,0,.12s0,0,0,0h0c-.06.1-.39.05-.55.05h-1.65c-.09-.07-.19-.05-.23-.18a1.92,1.92,0,0,1,0-.61,7.66,7.66,0,0,1,0-1.56,1.23,1.23,0,0,1,.18-.13c.06,0,.14,0,.18,0Zm5.23.26s0,0,.08.06a1.26,1.26,0,0,0,0,.25h0v0s0-.16,0-.28Zm-1.34-.27c.3,0,.63,0,.86,0,0,0,0,0,.05.11s0,0-.12,0-.19,0-.26,0h-.69a.27.27,0,0,0-.05.09,1,1,0,0,0,0,.31l0,0c.05,0,.22,0,.3,0a5.62,5.62,0,0,1,.76,0,.18.18,0,0,1,0,.13,1.31,1.31,0,0,1-.36,0h-.73a.41.41,0,0,0,0,.2l.05,0c.07.06.25,0,.36,0s.2,0,.28,0a1.52,1.52,0,0,0,.31.07c0,.05.06.05.08.1s0,.16.05.18,0,.18,0,.27a2.62,2.62,0,0,1,0,.71c0,.07-.12.11-.16.18a4.75,4.75,0,0,0-.71,0h-1.5a.26.26,0,0,1-.05-.15,1.44,1.44,0,0,1,.6-.05h1.35a1.31,1.31,0,0,0,.28,0,.18.18,0,0,0,.05-.13,1.88,1.88,0,0,0,0-.3c0-.19,0-.38,0-.58l-.12-.1a1.93,1.93,0,0,1-.48,0h-.89a2.36,2.36,0,0,1-.8.08c0-.06,0-.07,0-.1s.11,0,.22-.06c.27-.07.59,0,.88-.1a.39.39,0,0,0,0-.2h0v0a4.7,4.7,0,0,1-.7,0c-.07,0-.19,0-.23,0a.29.29,0,0,1-.19-.27c-.1-.1,0-.38.12-.41s.65-.05.84-.05v0h0a1,1,0,0,0,0,.1l0,0c-.16.12-.69-.09-.78.08a1.25,1.25,0,0,0,0,.28l.1.09h.84a1,1,0,0,0,0-.28.26.26,0,0,0,0-.13c.06,0,.09-.14.16-.17s.17,0,.21,0Zm-2.73-.57a6,6,0,0,1,1.38,0h.21a2,2,0,0,1,.33,0l.15,0a2.39,2.39,0,0,0,.75,0l.07,0,.28,0c.1,0,.21,0,.3,0a.82.82,0,0,1,.56.1l.11,0v.1a.63.63,0,0,1,.05.3s0,0-.05,0,0,0,0,.06h0s0,0,0-.13a.14.14,0,0,0,.08-.11,2.79,2.79,0,0,0-.5-.15l-.89,0c-.26-.07-.63,0-.89-.08l-.37,0a0,0,0,0,1,0,0,2,2,0,0,1-.25,0,1,1,0,0,0-.3-.08c0,.06-.06.07-.1.12h-.36s-.1.06-.15,0a1.93,1.93,0,0,0-.74,0c-.14,0-.33,0-.45,0h-.28l-.3.06c-.05,0-.12,0-.16,0-.29.09-.22.64-.22,1,0,.14,0,.21,0,.33v.38a1.51,1.51,0,0,0,0,.41l0,0,0,.17a.88.88,0,0,1,0,.3,2.32,2.32,0,0,0,0,.56v.27h0v0l0,0s0,.07,0,.08a1.22,1.22,0,0,1,0,.15,2.85,2.85,0,0,0,0,.3,5.21,5.21,0,0,0,0,.9v.38l0,0a.93.93,0,0,0,0,.23,1.16,1.16,0,0,0,.31.13c0-.06.29-.05.4-.05a2.74,2.74,0,0,0,.63,0H186a5.14,5.14,0,0,1,1.12,0,4,4,0,0,1,.6,0c.12,0,.21,0,.3,0a1.09,1.09,0,0,0,.46,0H189l.15,0c.18,0,.44,0,.65,0s0,.06.18,0,.08-.14.1-.2v-.3l.05,0v-.35a1,1,0,0,0,.08-.43.79.79,0,0,1-.05-.1,1,1,0,0,1,0-.39V147a1.72,1.72,0,0,1,0-.31.35.35,0,0,0,0-.15v-.2a.27.27,0,0,1,0-.15c0-.31-.05-.69,0-.86a.63.63,0,0,0,0-.18l0,0V145h0s0-.16,0-.2.07-.14.08-.17,0-.23.07-.27a.24.24,0,0,0,0,.17c0,.06,0,.24,0,.25s0,0,0,.05,0,.17,0,.25a1.88,1.88,0,0,0,0,.5v.25a.41.41,0,0,0,0,.2.53.53,0,0,1,0,.21,1.52,1.52,0,0,0,0,.75v1.29l0,0a5.81,5.81,0,0,1,0,.83c-.18.11-.12.17-.43.16a2,2,0,0,0-.51,0l-1,0a1,1,0,0,1-.41-.07h-.2l0,0-.08,0-.3,0a1.6,1.6,0,0,0-.51,0l0,0h-.48l0,0h-.12v0l0,0h-.38l-1.13,0c-.14,0-.39,0-.43-.1v-.2c-.07-.06,0-.29,0-.43,0-.35,0-.74,0-1.11s0-.67,0-1a2.92,2.92,0,0,0,0-.57v-.21l0-.05,0-.08a4.58,4.58,0,0,1,0-.73v-1.22s.07-.23.08-.25h0s0-.09.05-.13,0,0,.06-.09.13,0,.22,0a4,4,0,0,0,1.11,0C185.85,143,186.15,143.05,186.24,143Z" transform="translate(-99.92 -121.62)"/></svg>